<svg xmlns="http://www.w3.org/2000/svg">
  <defs>
    <style>.p{fill:currentColor;shape-rendering:crispEdges}</style>
    <symbol id="status-cash" viewBox="0 0 32 32"><g transform="scale(2)"><path class="p" d="M7 1h2v2h4v2H6v2h5l2 2v3l-2 2H9v1H7v-1H3v-2h7v-2H5L3 8V5l2-2h2z"/></g></symbol>
    <symbol id="status-energy" viewBox="0 0 32 32"><g transform="scale(2)"><path class="p" d="M8 1h5L9 6h4L5 15l2-7H3z"/></g></symbol>
    <symbol id="status-morale" viewBox="0 0 32 32"><g transform="scale(2)"><path class="p" d="M3 1h3l2 3 2-3h3l2 3v4l-7 7-7-7V4zm1 3L3 5v2l5 5 5-5V5l-1-1h-1L8 8 5 4z"/></g></symbol>
    <symbol id="status-rank" viewBox="0 0 32 32"><g transform="scale(2)"><path class="p" d="M6 1h4v3h3v4l-5 4-5-4V4h3zm0 5H5v1l3 2 3-2V6h-1v1H6zM4 12h8v3H4z"/></g></symbol>
    <symbol id="status-offer" viewBox="0 0 32 32"><g transform="scale(2)"><path class="p" d="M1 3h14v10H1zm2 2v1l5 3 5-3V5L8 8zm0 3v3h10V8l-5 3z"/></g></symbol>
    <symbol id="status-injury" viewBox="0 0 32 32"><g transform="scale(2)"><path class="p" d="M6 1h4v4h4v6h-4v4H6v-4H2V5h4zm2 2v4H4v2h4v4h0V9h4V7H8z"/></g></symbol>
    <symbol id="status-title" viewBox="0 0 32 32"><g transform="scale(2)"><path class="p" d="M3 1h10v3h2v4l-3 3H9v2h3v2H4v-2h3v-2H4L1 8V4h2zm2 2v5l3 2 3-2V3zM3 6H2v1l1 1zm10 0v2l1-1V6z"/></g></symbol>
    <symbol id="status-training" viewBox="0 0 32 32"><g transform="scale(2)"><path class="p" d="M1 6h2V4h2v3h6V4h2v2h2v4h-2v2h-2V9H5v3H3v-2H1z"/></g></symbol>
    <symbol id="status-success" viewBox="0 0 32 32"><g transform="scale(2)"><path class="p" d="M1 8l2-2 3 3 7-7 2 2-9 10z"/></g></symbol>
  </defs>
</svg>
