<svg xmlns="http://www.w3.org/2000/svg">
  <defs>
    <style>.p{fill:currentColor;shape-rendering:crispEdges}</style>

    <symbol id="icon-unknown" viewBox="0 0 16 16">
      <path class="p" d="M4 2h8v2h2v4h-2v2H9v2H7V8h4V6h1V4H4v2H2V4h2zM7 13h2v2H7z"/>
    </symbol>
    <symbol id="icon-octagon" viewBox="0 0 16 16">
      <path class="p" d="M5 1h6v1h2v2h2v8h-2v2h-2v1H5v-1H3v-2H1V4h2V2h2zm0 2v1H4v1H3v6h1v1h1v1h6v-1h1v-1h1V5h-1V4h-1V3z"/>
    </symbol>
    <symbol id="icon-dashboard" viewBox="0 0 16 16">
      <path class="p" d="M1 2h6v5H1zm8 0h6v8H9zM1 9h6v5H1zm8 3h6v2H9z"/>
    </symbol>
    <symbol id="icon-hall" viewBox="0 0 16 16">
      <path class="p" d="M7 1h2v1h2v1h2v1h2v2H1V4h2V3h2V2h2zM2 7h2v5H2zm5 0h2v5H7zm5 0h2v5h-2zM1 13h14v2H1z"/>
    </symbol>
    <symbol id="icon-events" viewBox="0 0 16 16">
      <path class="p" d="M3 1h2v2h6V1h2v2h2v12H1V3h2zm0 6v6h10V7zM5 9h2v2H5zm4 0h2v2H9z"/>
    </symbol>
    <symbol id="icon-market" viewBox="0 0 16 16">
      <path class="p" d="M2 2h12l1 4v2h-1v6H2V8H1V6zm2 6v4h3V8zm5 0v4h3V8zM3 4l-1 2h12l-1-2z"/>
    </symbol>
    <symbol id="icon-training" viewBox="0 0 16 16">
      <path class="p" d="M1 6h2V4h2v3h6V4h2v2h2v4h-2v2h-2V9H5v3H3v-2H1z"/>
    </symbol>
    <symbol id="icon-rivalries" viewBox="0 0 16 16">
      <path class="p" d="M2 1h2l4 5 4-5h2l-4 7 4 7h-2l-4-5-4 5H2l4-7z"/>
    </symbol>
    <symbol id="icon-notifications" viewBox="0 0 16 16">
      <path class="p" d="M7 1h2v2h2v1h1v6h2v2H2v-2h2V4h1V3h2zM6 13h4v2H6z"/>
    </symbol>
    <symbol id="icon-settings" viewBox="0 0 16 16">
      <path class="p" d="M6 1h4l1 3 3 1v2l-2 1 2 1v2l-3 1-1 3H6l-1-3-3-1V9l2-1-2-1V5l3-1zm2 4L5 8l3 3 3-3z"/>
    </symbol>
    <symbol id="icon-calendar" viewBox="0 0 16 16">
      <path class="p" d="M2 2h2V1h2v1h4V1h2v1h2v13H2zm2 4v7h8V6zm1 1h2v2H5zm4 0h2v2H9zm-4 3h2v2H5zm4 0h2v2H9z"/>
    </symbol>
    <symbol id="icon-cash" viewBox="0 0 16 16">
      <path class="p" d="M7 1h2v2h4v2H6v2h5l2 2v3l-2 2H9v1H7v-1H3v-2h7v-2H5L3 8V5l2-2h2z"/>
    </symbol>
    <symbol id="icon-energy" viewBox="0 0 16 16">
      <path class="p" d="M8 1h5L9 6h4L5 15l2-7H3z"/>
    </symbol>
    <symbol id="icon-morale" viewBox="0 0 16 16">
      <path class="p" d="M3 1h3l2 3 2-3h3l2 3v4l-7 7-7-7V4zm1 3L3 5v2l5 5 5-5V5l-1-1h-1L8 8 5 4z"/>
    </symbol>
    <symbol id="icon-rank" viewBox="0 0 16 16">
      <path class="p" d="M6 1h4v3h3v4l-5 4-5-4V4h3zm0 5H5v1l3 2 3-2V6h-1v1H6zM4 12h8v3H4z"/>
    </symbol>
    <symbol id="icon-offer" viewBox="0 0 16 16">
      <path class="p" d="M1 3h14v10H1zm2 2v1l5 3 5-3V5L8 8zm0 3v3h10V8l-5 3z"/>
    </symbol>
    <symbol id="icon-injury" viewBox="0 0 16 16">
      <path class="p" d="M6 1h4v4h4v6h-4v4H6v-4H2V5h4zm2 2v4H4v2h4v4h0V9h4V7H8z"/>
    </symbol>
    <symbol id="icon-title" viewBox="0 0 16 16">
      <path class="p" d="M3 1h10v3h2v4l-3 3H9v2h3v2H4v-2h3v-2H4L1 8V4h2zm2 2v5l3 2 3-2V3zM3 6H2v1l1 1zm10 0v2l1-1V6z"/>
    </symbol>
    <symbol id="icon-fight" viewBox="0 0 16 16">
      <path class="p" d="M2 2h3v2h2v3h2V4h2V2h3v5h-2v5l-2 3H6l-2-3V7H2zm4 7v3l1 1h2l1-1V9z"/>
    </symbol>
    <symbol id="icon-plan" viewBox="0 0 16 16">
      <path class="p" d="M2 1h12v14H2zm2 3v2h2V4zm4 0v2h4V4zM4 8v2h2V8zm4 0v2h4V8zm-4 4v1h8v-1z"/>
    </symbol>
    <symbol id="icon-scout" viewBox="0 0 16 16">
      <path class="p" d="M7 2h2v1h2v1h1v2h1v3h-1v2h-1v1H9v1H7v-1H5v-1H4V9H3V6h1V4h1V3h2zm1 3L6 8l2 2 2-2zm3 7h2l2 3h-3z"/>
    </symbol>
    <symbol id="icon-timeline" viewBox="0 0 16 16">
      <path class="p" d="M3 1h2v4H3zm0 6h2v3H3zm0 5h2v3H3zM7 2h7v2H7zm0 5h5v2H7zm0 5h7v2H7z"/>
    </symbol>
    <symbol id="icon-legacy" viewBox="0 0 16 16">
      <path class="p" d="M5 1h6v2h2v6l-3 3v3H6v-3L3 9V3h2zm0 3v4l3 2 3-2V4z"/>
    </symbol>
    <symbol id="icon-world" viewBox="0 0 16 16">
      <path class="p" d="M6 1h4l4 4v6l-4 4H6l-4-4V5zm1 2L5 5v2h2v2H5v2l2 2h2v-2h2V9h2V6l-2-2H9v2H7z"/>
    </symbol>
    <symbol id="icon-management" viewBox="0 0 16 16">
      <path class="p" d="M6 1h4v3h4v11H2V4h4zm2 2v1h0zm-4 3v7h2V6zm4 0v7h2V6zm4 0v7h0V6z"/>
    </symbol>
    <symbol id="icon-save" viewBox="0 0 16 16">
      <path class="p" d="M2 1h10l2 2v12H2zm2 2v4h7V3zm1 7v3h6v-3z"/>
    </symbol>
    <symbol id="icon-simulate" viewBox="0 0 16 16">
      <path class="p" d="M2 2h2v12H2zm4 1 8 5-8 5z"/>
    </symbol>
    <symbol id="icon-next" viewBox="0 0 16 16">
      <path class="p" d="M3 2l7 6-7 6zm8 0h2v12h-2z"/>
    </symbol>
    <symbol id="icon-success" viewBox="0 0 16 16">
      <path class="p" d="M1 8l2-2 3 3 7-7 2 2-9 10z"/>
    </symbol>
    <symbol id="icon-loss" viewBox="0 0 16 16">
      <path class="p" d="M3 1l5 5 5-5 2 2-5 5 5 5-2 2-5-5-5 5-2-2 5-5-5-5z"/>
    </symbol>
    <symbol id="icon-draw" viewBox="0 0 16 16">
      <path class="p" d="M2 4h12v3H2zm0 6h12v3H2z"/>
    </symbol>
  </defs>
</svg>
